<svg width="31" height="30" viewBox="0 0 31 30" fill="none" xmlns="http://www.w3.org/2000/svg">
<g id="icons fb">
<path id="Shape" fill-rule="evenodd" clip-rule="evenodd" d="M16.6046 21.6502V14.4002H18.9971L19.346 12.0502H16.6046V10.8502C16.6046 10.2002 16.804 9.6002 17.7012 9.6002H19.4956V7.2002H16.9535C14.8102 7.2002 14.2619 8.6502 14.2619 10.6002V12.0502H12.7666V14.4002H14.2619V21.6502H16.6046Z" fill="white"/>
<path id="Shape_2" fill-rule="evenodd" clip-rule="evenodd" d="M30.7103 15C30.7103 10.8803 29.0254 7.13028 26.3401 4.3838C23.6548 1.69014 19.9165 0 15.757 0C11.6501 0 7.91178 1.69014 5.17386 4.3838C2.48859 7.13028 0.803711 10.8803 0.803711 15C0.803711 19.1725 2.48859 22.9225 5.17386 25.6162C7.91178 28.3099 11.6501 30 15.757 30C19.9165 30 23.6548 28.3099 26.3401 25.6162C29.0254 22.9225 30.7103 19.1725 30.7103 15ZM25.4987 5.22991C27.9734 7.76512 29.553 11.1982 29.553 15.001C29.553 18.8038 27.9734 22.2898 25.4987 24.7722C23.0241 27.2546 19.549 28.8391 15.758 28.8391C11.9671 28.8391 8.54466 27.2546 6.01735 24.7722C3.54269 22.2898 2.01577 18.8038 2.01577 15.001C2.01577 11.1982 3.54269 7.76512 6.01735 5.22991C8.54466 2.74751 11.9671 1.21582 15.758 1.21582C19.549 1.21582 23.0241 2.74751 25.4987 5.22991Z" fill="white"/>
</g>
</svg>
